<svg width="348" height="148" viewBox="0 0 348 148" fill="none" xmlns="http://www.w3.org/2000/svg">
<path d="M325.804 76.6845H318.348V77.8555L331.351 107.371H334.644L347.517 77.8555V76.6845H340.063L333.129 93.8482H332.911L325.804 76.6845ZM294.55 91.8976C294.55 80.9755 309.764 80.9755 309.764 91.8976C309.764 102.909 294.55 102.909 294.55 91.8976ZM317.696 91.8976C317.696 70.9202 286.576 70.9202 286.576 91.8976C286.576 112.919 317.695 112.919 317.695 91.8976M278.298 107.025H281.072V67.6271H273.14V91.5282L257.798 76.5536H254.98V107.023H262.998V92.1144L278.298 107.025ZM240.545 96.5784H233.612L237.036 88.6046L240.545 96.5784ZM244.836 107.025H252.423V105.898L238.726 76.2947H235.389L221.737 105.898V107.025H229.321L231.098 103.21H243.06L244.836 107.025ZM202.058 76.6845H194.604V77.8555L207.607 107.371H210.902L223.775 77.8555V76.6845H216.319L209.385 93.8482H209.167L202.058 76.6845ZM187.93 100.219V68.4736H180.259V100.219H176.401V107.025H191.788V100.219H187.93Z" fill="#ABCF7A"/>
<path d="M154.513 83.7491H158.198C167.862 83.7491 167.862 99.96 158.198 99.96H154.513V83.7491ZM158.198 76.6844H146.755V107.025H158.198C177.962 106.938 177.962 76.7702 158.198 76.6844ZM296.458 70.7644H299.232V40.4255H291.3V55.2706L275.958 40.2946H273.14V70.7644H281.159V55.8553L296.458 70.7644ZM264.211 63.96V47.1862H267.766V40.4255H252.986V47.1862H256.54V63.96H252.684V70.7644H268.068V63.96H264.211ZM239.334 60.3193H232.399L235.823 52.3455L239.334 60.3193ZM243.625 70.7644H251.21V69.6386L237.513 40.0357H234.176L220.524 69.6386V70.7644H228.108L229.885 66.9506H241.847L243.625 70.7644ZM218.096 40.4255H195.124V47.3608H206.394L193.997 69.595V70.7644H218.225V63.8291H205.658L218.096 41.595V40.4255ZM187.93 63.96V47.1862H191.484V40.4255H176.705V47.1862H180.259V70.7644H187.93V63.96ZM154.513 47.4902H158.198C167.862 47.4902 167.862 63.6997 158.198 63.6997H154.513V47.4902ZM158.198 40.4255H146.755V70.7644H158.198C177.962 70.6771 177.962 40.5113 158.198 40.4255Z" fill="#ABCF7A"/>
<path d="M29.3018 147.434H34.384L47.5593 127.918C43.6783 126.791 39.9115 125.302 36.3083 123.472L29.3018 147.434ZM97.1273 147.434H102.209L95.2029 123.472C91.5996 125.302 87.8328 126.79 83.952 127.918L97.1273 147.434Z" fill="#ABCF7A"/>
<path fill-rule="evenodd" clip-rule="evenodd" d="M98.3156 87.4117C96.69 87.6636 95.1677 88.3663 93.9214 89.44C92.6752 90.5137 91.755 91.9154 91.2654 93.4859C91.0169 94.2674 90.7315 95.0368 90.4102 95.7913C86.7636 95.035 77.6407 93.4277 65.7556 93.4277C53.7382 93.4277 44.6342 95.0699 41.1113 95.8161C40.7767 95.0335 40.4858 94.248 40.2458 93.4859C39.7562 91.9156 38.8359 90.5141 37.5897 89.4407C36.3434 88.3672 34.8211 87.6648 33.1956 87.4132L30.6676 87.0131C31.7833 82.6437 33.6291 76.7455 36.6633 69.6866C37.3543 68.0761 38.4519 66.6728 39.8484 65.6142C41.245 64.5555 42.8926 63.8777 44.6298 63.6473C49.3702 63.0219 56.8014 62.2975 65.7542 62.2975C74.7084 62.2975 82.1396 63.0219 86.88 63.6473C88.6175 63.8776 90.2653 64.5553 91.6621 65.614C93.0589 66.6727 94.1567 68.076 94.848 69.6866C97.8822 76.7455 99.728 82.6437 100.844 87.0131L98.3156 87.4117ZM65.7556 0.265518C101.718 0.265518 130.873 29.419 130.873 65.3826C130.873 87.1324 120.207 106.388 103.821 118.215C106.433 112.831 112.897 99.451 113.908 91.9848C114.177 89.9964 112.599 88.2902 110.669 88.2902C110.499 88.2902 110.324 88.3033 110.15 88.331L101.484 89.6982L98.7462 90.1317C97.6277 90.3082 96.5806 90.7933 95.7226 91.5323C94.8646 92.2713 94.2298 93.235 93.8895 94.315C92.3098 99.307 88.1004 107.79 77.7207 107.79H53.7906C43.4109 107.79 39.2014 99.307 37.6218 94.3164C37.2818 93.2363 36.6473 92.2725 35.7896 91.5332C34.9319 90.794 33.885 90.3086 32.7665 90.1317L30.0262 89.6982L21.3614 88.331C21.1869 88.3019 21.0124 88.2902 20.8436 88.2902C18.912 88.2902 17.3338 89.9964 17.6029 91.9848C19.2451 104.114 24.0669 113.092 27.2291 117.877C11.1069 106.026 0.640015 86.9273 0.640015 65.3826C0.640015 29.419 29.7935 0.265518 65.7556 0.265518Z" fill="#ABCF7A"/>
</svg>
