<svg width="236" height="101" viewBox="0 0 236 101" fill="none" xmlns="http://www.w3.org/2000/svg">
<g clip-path="url(#clip0_2_4)">
<path d="M220.756 52.5024H215.71V53.2935L224.51 73.2701H226.74L235.452 53.2935V52.5024H230.407L225.714 64.1181H225.567L220.756 52.5024ZM199.604 62.7975C199.604 55.4055 209.9 55.4055 209.9 62.7975C209.9 70.2491 199.604 70.2491 199.604 62.7975ZM215.269 62.7975C215.269 48.6011 194.207 48.6011 194.207 62.7975C194.207 77.0258 215.269 77.0258 215.269 62.7975ZM188.603 73.0361H190.481V46.3699H185.113V62.5489L174.728 52.4136H172.821V73.0361H178.247V62.9445L188.603 73.0361ZM163.051 65.9654H158.359L160.676 60.5691L163.051 65.9654ZM165.957 73.0347H171.09V72.274L161.82 52.2374H159.561L150.321 72.2726V73.0361H155.455L156.658 70.4544H164.754L165.957 73.0347ZM137.003 52.5024H131.957V53.2935L140.757 73.2701H142.987L151.7 53.2935V52.5024H146.654L141.96 64.1181H141.815L137.003 52.5024ZM127.439 68.431V46.9445H122.247V68.431H119.637V73.0361H130.052V68.431H127.439Z" fill="#FEFEFE"/>
<path d="M104.823 57.2832H107.316C113.858 57.2832 113.858 68.2548 107.316 68.2548H104.823V57.2832ZM107.316 52.5023H99.5716V73.036H107.316C120.693 72.9778 120.693 52.5605 107.316 52.5023ZM200.894 48.4948H202.772V27.9597H197.404V38.0076L187.019 27.8709H185.113V48.4934H190.539V38.4032L200.894 48.4948ZM179.07 43.8883V32.5357H181.474V27.9597H171.473V32.5357H173.879V43.8883H171.268V48.4948H181.682V43.8883H179.07ZM162.23 41.4227H157.537L159.855 36.0264L162.23 41.4227ZM165.135 48.4934H170.27V47.7313L160.998 27.6948H158.741L149.5 47.7313V48.4934H154.633L155.836 45.9131H163.932L165.135 48.4934ZM147.857 27.9597H132.309V32.6536H139.937L131.547 47.7022V48.4934H147.945V43.8009H139.436L147.857 28.7523V27.9597ZM127.439 43.8883V32.5357H129.845V27.9597H119.842V32.5357H122.248V48.4948H127.441L127.439 43.8883ZM104.823 32.7406H107.316C113.858 32.7406 113.858 43.7125 107.316 43.7125H104.823V32.7406ZM107.316 27.9597H99.5716V48.4948H107.316C120.693 48.4366 120.693 28.0178 107.316 27.9597Z" fill="#FEFEFE"/>
<path d="M20.0764 100.386H23.5149L32.4327 87.1769C29.8061 86.4138 27.2568 85.4065 24.8182 84.1677L20.0764 100.386ZM65.9818 100.386H69.4218L64.68 84.1677C62.2409 85.4069 59.6911 86.4147 57.064 87.1784L65.9818 100.386Z" fill="#FEFEFE"/>
<path fill-rule="evenodd" clip-rule="evenodd" d="M66.7861 59.7619C65.6861 59.9325 64.656 60.4081 63.8127 61.1347C62.9694 61.8613 62.3467 62.8096 62.0152 63.8723C61.847 64.4014 61.6538 64.9222 61.4363 65.433C58.968 64.9196 52.7934 63.8332 44.7483 63.8332C36.616 63.8332 30.4531 64.9442 28.0691 65.4504C27.8436 64.9195 27.6472 64.3887 27.4829 63.8723C27.1515 62.8096 26.5287 61.8613 25.6854 61.1347C24.8421 60.4081 23.812 59.9325 22.712 59.7619L21 59.4913C21.7563 56.5342 23.0043 52.5429 25.0581 47.7647C25.5259 46.6747 26.2687 45.7248 27.214 45.0083C28.1592 44.2918 29.2743 43.8332 30.4501 43.6773C33.6589 43.2541 38.6872 42.764 44.7483 42.764C50.808 42.764 55.8378 43.2541 59.0465 43.6773C60.2223 43.8333 61.3374 44.2922 62.2826 45.0087C63.2277 45.7251 63.9707 46.6748 64.4385 47.7647C66.4923 52.5429 67.7418 56.5356 68.4967 59.4913L66.7861 59.7619ZM44.7498 0.778564C69.0902 0.778564 88.8225 20.511 88.8225 44.8513C88.8225 59.5713 81.6021 72.604 70.5127 80.6099C72.28 76.9662 76.6552 67.9087 77.3403 62.857C77.385 62.5153 77.3492 62.1679 77.2359 61.8425C77.1226 61.517 76.9349 61.2225 76.6877 60.9824C76.4405 60.7423 76.1407 60.5631 75.8121 60.4593C75.4835 60.3555 75.1351 60.3298 74.7949 60.3844L68.9301 61.3094L67.077 61.6017C66.3199 61.7213 65.6112 62.0499 65.0305 62.5502C64.4498 63.0505 64.0201 63.7027 63.7898 64.4337C62.7221 67.8126 59.8727 73.5538 52.8472 73.5538H36.6509C29.6254 73.5538 26.7745 67.8126 25.7069 64.4337C25.4767 63.7026 25.0471 63.0502 24.4663 62.5499C23.8856 62.0495 23.1768 61.7211 22.4196 61.6017L20.5665 61.3094L14.7018 60.3829C14.3616 60.3287 14.0135 60.3543 13.685 60.4582C13.3566 60.5622 13.057 60.7416 12.81 60.9817C12.5629 61.2218 12.3754 61.5161 12.2622 61.8414C12.1489 62.1667 12.1132 62.514 12.1578 62.8556C13.2691 71.0665 16.5331 77.1422 18.6741 80.3829C7.76069 72.3597 0.677063 59.4332 0.677063 44.8513C0.677063 20.511 20.408 0.778564 44.7498 0.778564Z" fill="#FEFEFE"/>
</g>
<defs>
<clipPath id="clip0_2_4">
<rect width="236" height="101" fill="white"/>
</clipPath>
</defs>
</svg>
