<svg width="38" height="38" viewBox="0 0 38 38" fill="none" xmlns="http://www.w3.org/2000/svg">
<path id="Vector" d="M32.8919 27.6402C32.0406 26.9538 31.1047 26.301 30.1732 25.6533L29.5834 25.2376C28.6237 24.5676 27.7428 24.2024 26.9747 24.2707C26.2497 24.3376 25.5485 24.8171 24.877 25.8317C24.2872 26.7231 23.5652 27.2179 22.763 27.4066C21.8969 27.6146 20.9817 27.4453 20.0696 27.0323C18.067 26.1261 16.2872 24.9675 14.7808 23.5264C13.2252 22.0375 11.9782 20.256 11.1114 18.2847C10.6597 17.2671 10.4384 16.2766 10.6018 15.3288C10.7742 14.3364 11.3446 13.4374 12.4722 12.6738C12.8733 12.4005 13.2804 12.1047 13.5522 11.7526C13.7751 11.4703 13.9132 11.129 13.8894 10.6833C13.8493 9.9435 12.7752 8.12619 11.5065 6.39843C10.2646 4.70186 8.89187 3.17061 8.19809 2.91508C7.95304 2.82283 7.69337 2.77517 7.43153 2.77508C7.15615 2.78067 6.88337 2.83002 6.62335 2.92089L6.08406 3.12255C4.5524 3.7465 3.4694 4.69768 2.90933 5.86091C2.35223 7.01968 2.29873 8.4252 2.8172 9.97172L3.0044 10.4664C5.36652 16.2648 8.61257 21.189 12.6861 25.2819C16.8458 29.4639 21.885 32.7902 27.7383 35.3098C28.1498 35.488 28.6297 35.5965 28.9892 35.6783L29.2863 35.7464C30.3485 35.7227 31.5221 35.1968 32.5502 34.4153C33.6911 33.5477 34.6285 32.3806 35.0341 31.2367C35.5764 29.7005 34.5112 28.8865 33.4534 28.0783L32.8919 27.6402ZM31.231 24.1336C32.1973 24.786 33.1388 25.4745 34.0536 26.1973L34.578 26.6057C36.1721 27.8239 37.7721 29.0485 36.7812 31.8518C36.2553 33.3374 35.0846 34.8138 33.6748 35.8879C32.308 36.9278 30.6857 37.6111 29.1615 37.5962H29.0278L28.5821 37.4852C28.1513 37.3872 27.5719 37.258 27.0088 37.0173C20.9431 34.4056 15.7123 30.9456 11.3743 26.5883C7.12251 22.3157 3.73831 17.1884 1.28408 11.1628L1.06125 10.5586C0.382328 8.53814 0.475914 6.65558 1.23952 5.06152C2.00312 3.4749 3.42038 2.20483 5.38732 1.40409L6.03655 1.16471C6.49412 1.01169 6.95761 0.926811 7.4241 0.925323C7.90612 0.922462 8.38469 1.00649 8.83689 1.17341C9.88276 1.55967 11.5779 3.35915 13.0011 5.30381C14.4451 7.27224 15.6751 9.475 15.739 10.5818C15.7967 11.4145 15.5384 12.2386 15.0155 12.8893C14.5981 13.43 14.0499 13.8367 13.5092 14.2037C12.8466 14.6523 12.5168 15.1355 12.4306 15.6421C12.3355 16.1933 12.4915 16.8351 12.802 17.5303C13.5715 19.28 14.6781 20.8608 16.0585 22.183C17.4104 23.477 19.0163 24.5198 20.8302 25.3428C21.3828 25.5924 21.8998 25.7043 22.3351 25.6003C22.6917 25.5172 23.0319 25.2687 23.332 24.8126C24.3467 23.275 25.5203 22.5397 26.8143 22.4253C28.0622 22.3168 29.3442 22.8087 30.6471 23.7223L31.231 24.1336Z" fill="#FEFEFE"/>
</svg>
